<svg width="1920" height="1571" viewBox="0 0 1920 1571" fill="none" xmlns="http://www.w3.org/2000/svg">
<g clip-path="url(#clip0_62_3949)">
<mask id="mask0_62_3949" style="mask-type:luminance" maskUnits="userSpaceOnUse" x="0" y="-645" width="1920" height="2715">
<path d="M1920 -644.208H0V2069.79H1920V-644.208Z" fill="white"/>
</mask>
<g mask="url(#mask0_62_3949)">
<path d="M-0.773926 2071.94H1920.13V-644.93H-0.773926V2071.94Z" fill="#FFFAF5"/>
<path d="M672.599 357.537C708.253 370.309 740.434 391.242 775.484 405.585C847.515 435.061 927.664 435.37 1005.49 435.249C1310.63 434.766 1615.76 434.285 1920.9 433.799V136.009C1788.96 132.953 1656.67 144.315 1527.22 170.039C1396.54 196.007 1266.13 236.698 1133.16 228.194C1034.1 221.86 938.96 188.413 841.214 171.113C764.785 157.587 686.994 153.977 609.461 150.394C406.309 141.004 203.152 131.617 -0.000488281 122.23V370.414C161.601 359.649 323.288 350.141 485.045 342.062C548.132 338.909 613.135 336.233 672.599 357.535V357.537Z" fill="#FFFAF5"/>
<path d="M1457.46 965.076C1293.61 978.296 1128.27 983.596 963.226 980.906C883.909 979.616 804.227 976.446 726.868 964.896C674.135 957.026 622.921 945.326 570.68 936.146C385.627 903.626 192.179 903.316 -0.00244141 908.236V1084.29C108.824 1084.74 218.157 1080.1 325.914 1089.7C404.922 1096.75 481.839 1111.36 559.909 1121.99C1006.01 1182.72 1464.47 1111.76 1920.9 1097.81V924.416C1766.25 933.096 1611.88 952.606 1457.46 965.076Z" fill="#FFFAF5"/>
<path d="M559.911 1121.98C481.841 1111.36 404.924 1096.75 325.916 1089.7C218.158 1080.09 108.826 1084.74 -0.000488281 1084.28V1600.58H1920.9V1097.8C1464.47 1111.75 1006.01 1182.71 559.911 1121.98Z" fill="#FD864B"/>
<path d="M570.682 936.146C622.923 945.326 674.137 957.026 726.87 964.896C804.229 976.446 883.911 979.616 963.228 980.906C1128.27 983.596 1293.61 978.296 1457.47 965.076C1611.88 952.606 1766.25 933.096 1920.91 924.416V835.918C1615.77 836.236 1310.63 836.55 1005.5 836.868C927.669 836.949 847.518 836.745 775.489 817.427C740.439 808.026 708.255 794.308 672.604 785.939C613.139 771.979 548.136 773.733 485.05 775.799C323.293 781.092 161.606 787.324 0.00439453 794.378V908.236C192.186 903.316 385.634 903.626 570.687 936.146H570.682Z" fill="#FFFAF5"/>
<path d="M1755.95 886.666C1755.95 1066.49 1610.18 1212.27 1430.36 1212.27C1250.54 1212.27 1104.78 1066.49 1104.78 886.666C1104.78 706.835 1250.54 561.053 1430.36 561.053C1610.18 561.053 1755.95 706.835 1755.95 886.666Z" fill="#F6EC40"/>
<path d="M362.189 1245.98H227.994V1410.7H401.321V1385.84H535.518V1125.01H362.189V1245.98Z" fill="#6965AC"/>
<path d="M774.667 1414.2H947.996V1170.58H774.667V1414.2Z" fill="#C08FBF"/>
<path d="M1373.14 1370.45H1546.47V1165.27H1373.14V1370.45Z" fill="#6965AC"/>
<path d="M-0.000488281 1394.98H86.6655V1189.8H-0.000488281V1394.98Z" fill="#6965AC"/>
<path d="M487.525 1398.81H746.131V867.356H487.525V1398.81Z" fill="#F84703"/>
<path d="M642.135 1398.81H746.131V867.356H642.135V1398.81Z" fill="#F6EC40"/>
<path d="M709.378 886.656H735.06V876.816H709.378V886.656Z" fill="#6965AC"/>
<path d="M679.499 886.656H705.184V876.816H679.499V886.656Z" fill="#6965AC"/>
<path d="M649.621 886.656H675.303V876.816H649.621V886.656Z" fill="#6965AC"/>
<path d="M709.378 901.646H735.06V891.796H709.378V901.646Z" fill="#6965AC"/>
<path d="M679.499 901.646H705.184V891.796H679.499V901.646Z" fill="#6965AC"/>
<path d="M649.621 901.646H675.303V891.796H649.621V901.646Z" fill="#6965AC"/>
<path d="M709.378 916.626H735.06V906.776H709.378V916.626Z" fill="#6965AC"/>
<path d="M679.499 916.626H705.184V906.776H679.499V916.626Z" fill="#6965AC"/>
<path d="M649.621 916.626H675.303V906.776H649.621V916.626Z" fill="#6965AC"/>
<path d="M709.378 931.606H735.06V921.756H709.378V931.606Z" fill="#6965AC"/>
<path d="M679.499 931.606H705.184V921.756H679.499V931.606Z" fill="#6965AC"/>
<path d="M649.621 931.606H675.303V921.756H649.621V931.606Z" fill="#6965AC"/>
<path d="M709.378 946.586H735.06V936.736H709.378V946.586Z" fill="#6965AC"/>
<path d="M679.499 946.586H705.184V936.736H679.499V946.586Z" fill="#6965AC"/>
<path d="M649.621 946.586H675.303V936.736H649.621V946.586Z" fill="#6965AC"/>
<path d="M709.378 961.566H735.06V951.716H709.378V961.566Z" fill="#6965AC"/>
<path d="M679.499 961.566H705.184V951.716H679.499V961.566Z" fill="#6965AC"/>
<path d="M649.621 961.566H675.303V951.716H649.621V961.566Z" fill="#6965AC"/>
<path d="M709.378 976.546H735.06V966.696H709.378V976.546Z" fill="#6965AC"/>
<path d="M679.499 976.546H705.184V966.696H679.499V976.546Z" fill="#6965AC"/>
<path d="M649.621 976.546H675.303V966.696H649.621V976.546Z" fill="#6965AC"/>
<path d="M709.378 991.526H735.06V981.676H709.378V991.526Z" fill="#6965AC"/>
<path d="M679.499 991.526H705.184V981.676H679.499V991.526Z" fill="#6965AC"/>
<path d="M649.621 991.526H675.303V981.676H649.621V991.526Z" fill="#6965AC"/>
<path d="M709.378 1006.51H735.06V996.656H709.378V1006.51Z" fill="#6965AC"/>
<path d="M679.499 1006.51H705.184V996.656H679.499V1006.51Z" fill="#6965AC"/>
<path d="M649.621 1006.51H675.303V996.656H649.621V1006.51Z" fill="#6965AC"/>
<path d="M709.378 1021.49H735.06V1011.64H709.378V1021.49Z" fill="#6965AC"/>
<path d="M679.499 1021.49H705.184V1011.64H679.499V1021.49Z" fill="#6965AC"/>
<path d="M649.621 1021.49H675.303V1011.64H649.621V1021.49Z" fill="#6965AC"/>
<path d="M709.378 1036.47H735.06V1026.62H709.378V1036.47Z" fill="#6965AC"/>
<path d="M679.499 1036.47H705.184V1026.62H679.499V1036.47Z" fill="#6965AC"/>
<path d="M649.621 1036.47H675.303V1026.62H649.621V1036.47Z" fill="#6965AC"/>
<path d="M709.378 1051.45H735.06V1041.6H709.378V1051.45Z" fill="#6965AC"/>
<path d="M679.499 1051.45H705.184V1041.6H679.499V1051.45Z" fill="#6965AC"/>
<path d="M649.621 1051.45H675.303V1041.6H649.621V1051.45Z" fill="#6965AC"/>
<path d="M709.378 1066.43H735.06V1056.59H709.378V1066.43Z" fill="#6965AC"/>
<path d="M679.499 1066.43H705.184V1056.59H679.499V1066.43Z" fill="#6965AC"/>
<path d="M649.621 1066.43H675.303V1056.59H649.621V1066.43Z" fill="#6965AC"/>
<path d="M709.378 1081.41H735.06V1071.56H709.378V1081.41Z" fill="#6965AC"/>
<path d="M679.499 1081.41H705.184V1071.56H679.499V1081.41Z" fill="#6965AC"/>
<path d="M649.621 1081.41H675.303V1071.56H649.621V1081.41Z" fill="#6965AC"/>
<path d="M709.378 1096.39H735.06V1086.54H709.378V1096.39Z" fill="#6965AC"/>
<path d="M679.499 1096.39H705.184V1086.54H679.499V1096.39Z" fill="#6965AC"/>
<path d="M649.621 1096.39H675.303V1086.54H649.621V1096.39Z" fill="#6965AC"/>
<path d="M709.378 1111.37H735.06V1101.52H709.378V1111.37Z" fill="#6965AC"/>
<path d="M679.499 1111.37H705.184V1101.52H679.499V1111.37Z" fill="#6965AC"/>
<path d="M649.621 1111.37H675.303V1101.52H649.621V1111.37Z" fill="#6965AC"/>
<path d="M709.378 1126.35H735.06V1116.51H709.378V1126.35Z" fill="#6965AC"/>
<path d="M679.499 1126.35H705.184V1116.51H679.499V1126.35Z" fill="#6965AC"/>
<path d="M649.621 1126.35H675.303V1116.51H649.621V1126.35Z" fill="#6965AC"/>
<path d="M709.378 1141.33H735.06V1131.49H709.378V1141.33Z" fill="#6965AC"/>
<path d="M679.499 1141.33H705.184V1131.49H679.499V1141.33Z" fill="#6965AC"/>
<path d="M649.621 1141.33H675.303V1131.49H649.621V1141.33Z" fill="#6965AC"/>
<path d="M709.378 1156.31H735.06V1146.47H709.378V1156.31Z" fill="#6965AC"/>
<path d="M679.499 1156.31H705.184V1146.47H679.499V1156.31Z" fill="#6965AC"/>
<path d="M649.621 1156.31H675.303V1146.47H649.621V1156.31Z" fill="#6965AC"/>
<path d="M709.378 1171.29H735.06V1161.45H709.378V1171.29Z" fill="#6965AC"/>
<path d="M679.499 1171.29H705.184V1161.45H679.499V1171.29Z" fill="#6965AC"/>
<path d="M649.621 1171.29H675.303V1161.45H649.621V1171.29Z" fill="#6965AC"/>
<path d="M709.378 1186.27H735.06V1176.43H709.378V1186.27Z" fill="#6965AC"/>
<path d="M679.499 1186.27H705.184V1176.43H679.499V1186.27Z" fill="#6965AC"/>
<path d="M649.621 1186.27H675.303V1176.43H649.621V1186.27Z" fill="#6965AC"/>
<path d="M709.378 1201.25H735.06V1191.41H709.378V1201.25Z" fill="#6965AC"/>
<path d="M679.499 1201.25H705.184V1191.41H679.499V1201.25Z" fill="#6965AC"/>
<path d="M649.621 1201.25H675.303V1191.41H649.621V1201.25Z" fill="#6965AC"/>
<path d="M709.378 1216.97H735.06V1207.12H709.378V1216.97Z" fill="#6965AC"/>
<path d="M679.499 1216.97H705.184V1207.12H679.499V1216.97Z" fill="#6965AC"/>
<path d="M649.621 1216.97H675.303V1207.12H649.621V1216.97Z" fill="#6965AC"/>
<path d="M709.378 1232.68H735.06V1222.83H709.378V1232.68Z" fill="#6965AC"/>
<path d="M679.499 1232.68H705.184V1222.83H679.499V1232.68Z" fill="#6965AC"/>
<path d="M649.621 1232.68H675.303V1222.83H649.621V1232.68Z" fill="#6965AC"/>
<path d="M709.378 1248.39H735.06V1238.55H709.378V1248.39Z" fill="#6965AC"/>
<path d="M679.499 1248.39H705.184V1238.55H679.499V1248.39Z" fill="#6965AC"/>
<path d="M649.621 1248.39H675.303V1238.55H649.621V1248.39Z" fill="#6965AC"/>
<path d="M709.378 1264.1H735.06V1254.26H709.378V1264.1Z" fill="#6965AC"/>
<path d="M679.499 1264.1H705.184V1254.26H679.499V1264.1Z" fill="#6965AC"/>
<path d="M649.621 1264.1H675.303V1254.26H649.621V1264.1Z" fill="#6965AC"/>
<path d="M709.378 1279.82H735.06V1269.97H709.378V1279.82Z" fill="#6965AC"/>
<path d="M679.499 1279.82H705.184V1269.97H679.499V1279.82Z" fill="#6965AC"/>
<path d="M649.621 1279.82H675.303V1269.97H649.621V1279.82Z" fill="#6965AC"/>
<path d="M709.378 1295.53H735.06V1285.68H709.378V1295.53Z" fill="#6965AC"/>
<path d="M679.499 1295.53H705.184V1285.68H679.499V1295.53Z" fill="#6965AC"/>
<path d="M649.621 1295.53H675.303V1285.68H649.621V1295.53Z" fill="#6965AC"/>
<path d="M709.378 1311.24H735.06V1301.39H709.378V1311.24Z" fill="#6965AC"/>
<path d="M679.499 1311.24H705.184V1301.39H679.499V1311.24Z" fill="#6965AC"/>
<path d="M649.621 1311.24H675.303V1301.39H649.621V1311.24Z" fill="#6965AC"/>
<path d="M709.378 1326.95H735.06V1317.11H709.378V1326.95Z" fill="#6965AC"/>
<path d="M679.499 1326.95H705.184V1317.11H679.499V1326.95Z" fill="#6965AC"/>
<path d="M649.621 1326.95H675.303V1317.11H649.621V1326.95Z" fill="#6965AC"/>
<path d="M709.378 1342.67H735.06V1332.82H709.378V1342.67Z" fill="#6965AC"/>
<path d="M679.499 1342.67H705.184V1332.82H679.499V1342.67Z" fill="#6965AC"/>
<path d="M649.621 1342.67H675.303V1332.82H649.621V1342.67Z" fill="#6965AC"/>
<path d="M709.378 1358.38H735.06V1348.53H709.378V1358.38Z" fill="#6965AC"/>
<path d="M679.499 1358.38H705.184V1348.53H679.499V1358.38Z" fill="#6965AC"/>
<path d="M649.621 1358.38H675.303V1348.53H649.621V1358.38Z" fill="#6965AC"/>
<path d="M709.378 1374.09H735.06V1364.24H709.378V1374.09Z" fill="#6965AC"/>
<path d="M679.499 1374.09H705.184V1364.24H679.499V1374.09Z" fill="#6965AC"/>
<path d="M649.621 1374.09H675.303V1364.24H649.621V1374.09Z" fill="#6965AC"/>
<path d="M709.378 1389.8H735.06V1379.96H709.378V1389.8Z" fill="#6965AC"/>
<path d="M679.499 1389.8H705.184V1379.96H679.499V1389.8Z" fill="#6965AC"/>
<path d="M649.621 1389.8H675.303V1379.96H649.621V1389.8Z" fill="#6965AC"/>
<path d="M487.525 1234.85H564.237V1212.04H487.525V1234.85Z" fill="#6965AC"/>
<path d="M531.812 1234.85H564.237V1212.04H531.812V1234.85Z" fill="#F6EC40"/>
<path d="M1292.87 1386.37H1421.48V1020.78H1292.87V1386.37Z" fill="#F6EC40"/>
<path d="M1260.61 1411.25H1389.22V1045.66H1260.61V1411.25Z" fill="#F84703"/>
<path d="M391.57 1423H671.793V1228.11H391.57V1423Z" fill="#F84703"/>
<path d="M594.29 1423H671.793V1228.11H594.29V1423Z" fill="#F6EC40"/>
<path d="M602.724 1251.44H662.464V1244.18H602.724V1251.44Z" fill="#6965AC"/>
<path d="M561.075 1251.44H581.981V1244.18H561.075V1251.44Z" fill="#6965AC"/>
<path d="M534.449 1251.44H555.355V1244.18H534.449V1251.44Z" fill="#6965AC"/>
<path d="M507.826 1251.44H528.729V1244.18H507.826V1251.44Z" fill="#6965AC"/>
<path d="M481.2 1251.44H502.103V1244.18H481.2V1251.44Z" fill="#6965AC"/>
<path d="M454.572 1251.44H475.478V1244.18H454.572V1251.44Z" fill="#6965AC"/>
<path d="M427.947 1251.44H448.855V1244.18H427.947V1251.44Z" fill="#6965AC"/>
<path d="M401.321 1251.44H422.229V1244.18H401.321V1251.44Z" fill="#6965AC"/>
<path d="M561.075 1269.06H581.981V1261.8H561.075V1269.06Z" fill="#6965AC"/>
<path d="M534.449 1269.06H555.355V1261.8H534.449V1269.06Z" fill="#6965AC"/>
<path d="M507.826 1269.06H528.729V1261.8H507.826V1269.06Z" fill="#6965AC"/>
<path d="M481.2 1269.06H502.103V1261.8H481.2V1269.06Z" fill="#6965AC"/>
<path d="M454.572 1269.06H475.478V1261.8H454.572V1269.06Z" fill="#6965AC"/>
<path d="M427.947 1269.06H448.855V1261.8H427.947V1269.06Z" fill="#6965AC"/>
<path d="M401.321 1269.06H422.229V1261.8H401.321V1269.06Z" fill="#6965AC"/>
<path d="M561.075 1286.68H581.981V1279.43H561.075V1286.68Z" fill="#6965AC"/>
<path d="M534.449 1286.68H555.355V1279.43H534.449V1286.68Z" fill="#6965AC"/>
<path d="M507.826 1286.68H528.729V1279.43H507.826V1286.68Z" fill="#6965AC"/>
<path d="M481.2 1286.68H502.103V1279.43H481.2V1286.68Z" fill="#6965AC"/>
<path d="M454.572 1286.68H475.478V1279.43H454.572V1286.68Z" fill="#6965AC"/>
<path d="M427.947 1286.68H448.855V1279.43H427.947V1286.68Z" fill="#6965AC"/>
<path d="M401.321 1286.68H422.229V1279.43H401.321V1286.68Z" fill="#6965AC"/>
<path d="M561.075 1304.31H581.981V1297.05H561.075V1304.31Z" fill="#6965AC"/>
<path d="M534.449 1304.31H555.355V1297.05H534.449V1304.31Z" fill="#6965AC"/>
<path d="M507.826 1304.31H528.729V1297.05H507.826V1304.31Z" fill="#6965AC"/>
<path d="M481.2 1304.31H502.103V1297.05H481.2V1304.31Z" fill="#6965AC"/>
<path d="M454.572 1304.31H475.478V1297.05H454.572V1304.31Z" fill="#6965AC"/>
<path d="M427.947 1304.31H448.855V1297.05H427.947V1304.31Z" fill="#6965AC"/>
<path d="M401.321 1304.31H422.229V1297.05H401.321V1304.31Z" fill="#6965AC"/>
<path d="M561.075 1321.93H581.981V1314.67H561.075V1321.93Z" fill="#6965AC"/>
<path d="M534.449 1321.93H555.355V1314.67H534.449V1321.93Z" fill="#6965AC"/>
<path d="M507.826 1321.93H528.729V1314.67H507.826V1321.93Z" fill="#6965AC"/>
<path d="M481.2 1321.93H502.103V1314.67H481.2V1321.93Z" fill="#6965AC"/>
<path d="M454.572 1321.93H475.478V1314.67H454.572V1321.93Z" fill="#6965AC"/>
<path d="M427.947 1321.93H448.855V1314.67H427.947V1321.93Z" fill="#6965AC"/>
<path d="M401.321 1321.93H422.229V1314.67H401.321V1321.93Z" fill="#6965AC"/>
<path d="M561.075 1339.55H581.981V1332.3H561.075V1339.55Z" fill="#6965AC"/>
<path d="M534.449 1339.55H555.355V1332.3H534.449V1339.55Z" fill="#6965AC"/>
<path d="M507.826 1339.55H528.729V1332.3H507.826V1339.55Z" fill="#6965AC"/>
<path d="M481.2 1339.55H502.103V1332.3H481.2V1339.55Z" fill="#6965AC"/>
<path d="M454.572 1339.55H475.478V1332.3H454.572V1339.55Z" fill="#6965AC"/>
<path d="M427.947 1339.55H448.855V1332.3H427.947V1339.55Z" fill="#6965AC"/>
<path d="M401.321 1339.55H422.229V1332.3H401.321V1339.55Z" fill="#6965AC"/>
<path d="M561.075 1357.17H581.981V1349.92H561.075V1357.17Z" fill="#6965AC"/>
<path d="M534.449 1357.17H555.355V1349.92H534.449V1357.17Z" fill="#6965AC"/>
<path d="M507.826 1357.17H528.729V1349.92H507.826V1357.17Z" fill="#6965AC"/>
<path d="M481.2 1357.17H502.103V1349.92H481.2V1357.17Z" fill="#6965AC"/>
<path d="M454.572 1357.17H475.478V1349.92H454.572V1357.17Z" fill="#6965AC"/>
<path d="M427.947 1357.17H448.855V1349.92H427.947V1357.17Z" fill="#6965AC"/>
<path d="M401.321 1357.17H422.229V1349.92H401.321V1357.17Z" fill="#6965AC"/>
<path d="M561.075 1374.8H581.981V1367.54H561.075V1374.8Z" fill="#6965AC"/>
<path d="M534.449 1374.8H555.355V1367.54H534.449V1374.8Z" fill="#6965AC"/>
<path d="M507.826 1374.8H528.729V1367.54H507.826V1374.8Z" fill="#6965AC"/>
<path d="M481.2 1374.8H502.103V1367.54H481.2V1374.8Z" fill="#6965AC"/>
<path d="M454.572 1374.8H475.478V1367.54H454.572V1374.8Z" fill="#6965AC"/>
<path d="M427.947 1374.8H448.855V1367.54H427.947V1374.8Z" fill="#6965AC"/>
<path d="M401.321 1374.8H422.229V1367.54H401.321V1374.8Z" fill="#6965AC"/>
<path d="M561.075 1392.42H581.981V1385.16H561.075V1392.42Z" fill="#6965AC"/>
<path d="M534.449 1392.42H555.355V1385.16H534.449V1392.42Z" fill="#6965AC"/>
<path d="M507.826 1392.42H528.729V1385.16H507.826V1392.42Z" fill="#6965AC"/>
<path d="M481.2 1392.42H502.103V1385.16H481.2V1392.42Z" fill="#6965AC"/>
<path d="M454.572 1392.42H475.478V1385.16H454.572V1392.42Z" fill="#6965AC"/>
<path d="M427.947 1392.42H448.855V1385.16H427.947V1392.42Z" fill="#6965AC"/>
<path d="M401.321 1392.42H422.229V1385.16H401.321V1392.42Z" fill="#6965AC"/>
<path d="M561.075 1410.04H581.981V1402.79H561.075V1410.04Z" fill="#6965AC"/>
<path d="M534.449 1410.04H555.355V1402.79H534.449V1410.04Z" fill="#6965AC"/>
<path d="M507.826 1410.04H528.729V1402.79H507.826V1410.04Z" fill="#6965AC"/>
<path d="M481.2 1410.04H502.103V1402.79H481.2V1410.04Z" fill="#6965AC"/>
<path d="M454.572 1410.04H475.478V1402.79H454.572V1410.04Z" fill="#6965AC"/>
<path d="M427.947 1410.04H448.855V1402.79H427.947V1410.04Z" fill="#6965AC"/>
<path d="M401.321 1410.04H422.229V1402.79H401.321V1410.04Z" fill="#6965AC"/>
<path d="M602.724 1269.06H662.464V1261.8H602.724V1269.06Z" fill="#6965AC"/>
<path d="M602.724 1286.68H662.464V1279.43H602.724V1286.68Z" fill="#6965AC"/>
<path d="M602.724 1304.31H662.464V1297.05H602.724V1304.31Z" fill="#6965AC"/>
<path d="M602.724 1321.93H662.464V1314.67H602.724V1321.93Z" fill="#6965AC"/>
<path d="M602.724 1336.45H662.464V1329.19H602.724V1336.45Z" fill="#6965AC"/>
<path d="M602.724 1350.97H662.464V1343.71H602.724V1350.97Z" fill="#6965AC"/>
<path d="M602.724 1365.49H662.464V1358.23H602.724V1365.49Z" fill="#6965AC"/>
<path d="M602.724 1380.01H662.464V1372.75H602.724V1380.01Z" fill="#6965AC"/>
<path d="M602.724 1394.53H662.464V1387.27H602.724V1394.53Z" fill="#6965AC"/>
<path d="M602.724 1409.05H662.464V1401.79H602.724V1409.05Z" fill="#6965AC"/>
<path d="M42.0596 1444.77H254.152V962.286H42.0596V1444.77Z" fill="#F84703"/>
<path d="M135.981 1444.77H254.152V962.286H135.981V1444.77Z" fill="#F6EC40"/>
<path d="M42.0596 974.206H254.152V967.236H42.0596V974.206Z" fill="#6965AC"/>
<path d="M42.0596 990.176H254.152V983.196H42.0596V990.176Z" fill="#6965AC"/>
<path d="M42.0596 1006.14H254.152V999.156H42.0596V1006.14Z" fill="#6965AC"/>
<path d="M42.0596 1020.99H254.152V1014.02H42.0596V1020.99Z" fill="#6965AC"/>
<path d="M42.0596 1035.85H254.152V1028.88H42.0596V1035.85Z" fill="#6965AC"/>
<path d="M42.0596 1050.71H254.152V1043.74H42.0596V1050.71Z" fill="#6965AC"/>
<path d="M42.0596 1065.57H254.152V1058.6H42.0596V1065.57Z" fill="#6965AC"/>
<path d="M42.0596 1080.43H254.152V1073.46H42.0596V1080.43Z" fill="#6965AC"/>
<path d="M42.0596 1095.29H254.152V1088.32H42.0596V1095.29Z" fill="#6965AC"/>
<path d="M42.0596 1110.15H254.152V1103.18H42.0596V1110.15Z" fill="#6965AC"/>
<path d="M42.0596 1125.01H254.152V1118.04H42.0596V1125.01Z" fill="#6965AC"/>
<path d="M42.0596 1139.87H254.152V1132.9H42.0596V1139.87Z" fill="#6965AC"/>
<path d="M42.0596 1154.73H254.152V1147.76H42.0596V1154.73Z" fill="#6965AC"/>
<path d="M42.0596 1169.59H254.152V1162.62H42.0596V1169.59Z" fill="#6965AC"/>
<path d="M42.0596 1184.45H254.152V1177.48H42.0596V1184.45Z" fill="#6965AC"/>
<path d="M42.0596 1199.31H254.152V1192.34H42.0596V1199.31Z" fill="#6965AC"/>
<path d="M42.0596 1214.17H254.152V1207.2H42.0596V1214.17Z" fill="#6965AC"/>
<path d="M42.0596 1229.03H254.152V1222.06H42.0596V1229.03Z" fill="#6965AC"/>
<path d="M42.0596 1243.89H254.152V1236.92H42.0596V1243.89Z" fill="#6965AC"/>
<path d="M42.0596 1258.75H254.152V1251.78H42.0596V1258.75Z" fill="#6965AC"/>
<path d="M42.0596 1273.61H254.152V1266.64H42.0596V1273.61Z" fill="#6965AC"/>
<path d="M42.0596 1288.47H254.152V1281.5H42.0596V1288.47Z" fill="#6965AC"/>
<path d="M42.0596 1303.33H254.152V1296.36H42.0596V1303.33Z" fill="#6965AC"/>
<path d="M42.0596 1318.19H254.152V1311.22H42.0596V1318.19Z" fill="#6965AC"/>
<path d="M42.0596 1333.05H254.152V1326.08H42.0596V1333.05Z" fill="#6965AC"/>
<path d="M42.0596 1347.91H254.152V1340.94H42.0596V1347.91Z" fill="#6965AC"/>
<path d="M42.0596 1362.77H254.152V1355.8H42.0596V1362.77Z" fill="#6965AC"/>
<path d="M42.0596 1377.63H254.152V1370.65H42.0596V1377.63Z" fill="#6965AC"/>
<path d="M42.0596 1392.49H254.152V1385.52H42.0596V1392.49Z" fill="#6965AC"/>
<path d="M232.573 1380.38H240.279V967.236H232.573V1380.38Z" fill="#F6EC40"/>
<path d="M135.981 1380.38H143.686V967.236H135.981V1380.38Z" fill="#F6EC40"/>
<path d="M1102.54 978.966H1311.85V927.136H1102.54V978.966Z" fill="#F05555"/>
<path d="M1260.61 978.966H1311.85V927.136H1260.61V978.966Z" fill="#F6EC40"/>
<path d="M1083.82 1001.6H1330.57V971.196H1083.82V1001.6Z" fill="#F05555"/>
<path d="M1260.61 1001.6H1330.57V971.196H1260.61V1001.6Z" fill="#F6EC40"/>
<path d="M1071.17 1444.77H1343.22V990.366H1071.17V1444.77Z" fill="#F84703"/>
<path d="M1191.64 1444.77H1343.22V990.366H1191.64V1444.77Z" fill="#F6EC40"/>
<path d="M1102.54 944.066H1311.85V937.506H1102.54V944.066Z" fill="#6965AC"/>
<path d="M1102.54 956.336H1311.85V949.766H1102.54V956.336Z" fill="#6965AC"/>
<path d="M1102.54 968.596H1311.85V962.036H1102.54V968.596Z" fill="#6965AC"/>
<path d="M1083.82 985.536H1330.57V978.966H1083.82V985.536Z" fill="#6965AC"/>
<path d="M1071.17 1001.6H1343.22V995.036H1071.17V1001.6Z" fill="#6965AC"/>
<path d="M1071.17 1016.63H1343.22V1010.07H1071.17V1016.63Z" fill="#6965AC"/>
<path d="M1071.17 1031.67H1343.22V1025.1H1071.17V1031.67Z" fill="#6965AC"/>
<path d="M1071.17 1045.66H1343.22V1039.1H1071.17V1045.66Z" fill="#6965AC"/>
<path d="M1071.17 1059.66H1343.22V1053.09H1071.17V1059.66Z" fill="#6965AC"/>
<path d="M1071.17 1073.65H1343.22V1067.09H1071.17V1073.65Z" fill="#6965AC"/>
<path d="M1071.17 1087.65H1343.22V1081.08H1071.17V1087.65Z" fill="#6965AC"/>
<path d="M1071.17 1101.64H1343.22V1095.08H1071.17V1101.64Z" fill="#6965AC"/>
<path d="M1071.17 1115.64H1343.22V1109.07H1071.17V1115.64Z" fill="#6965AC"/>
<path d="M1071.17 1129.63H1343.22V1123.06H1071.17V1129.63Z" fill="#6965AC"/>
<path d="M1071.17 1143.63H1343.22V1137.06H1071.17V1143.63Z" fill="#6965AC"/>
<path d="M1071.17 1157.62H1343.22V1151.05H1071.17V1157.62Z" fill="#6965AC"/>
<path d="M1071.17 1171.62H1343.22V1165.05H1071.17V1171.62Z" fill="#6965AC"/>
<path d="M1071.17 1185.61H1343.22V1179.04H1071.17V1185.61Z" fill="#6965AC"/>
<path d="M1071.17 1199.6H1343.22V1193.04H1071.17V1199.6Z" fill="#6965AC"/>
<path d="M1071.17 1213.6H1343.22V1207.03H1071.17V1213.6Z" fill="#6965AC"/>
<path d="M1071.17 1227.59H1343.22V1221.03H1071.17V1227.59Z" fill="#6965AC"/>
<path d="M1071.17 1241.59H1343.22V1235.02H1071.17V1241.59Z" fill="#6965AC"/>
<path d="M1071.17 1255.58H1343.22V1249.02H1071.17V1255.58Z" fill="#6965AC"/>
<path d="M1071.17 1269.58H1343.22V1263.01H1071.17V1269.58Z" fill="#6965AC"/>
<path d="M1071.17 1283.57H1343.22V1277.01H1071.17V1283.57Z" fill="#6965AC"/>
<path d="M1071.17 1297.57H1343.22V1291H1071.17V1297.57Z" fill="#6965AC"/>
<path d="M1071.17 1311.56H1343.22V1304.99H1071.17V1311.56Z" fill="#6965AC"/>
<path d="M1071.17 1325.56H1343.22V1318.99H1071.17V1325.56Z" fill="#6965AC"/>
<path d="M1071.17 1339.55H1343.22V1332.99H1071.17V1339.55Z" fill="#6965AC"/>
<path d="M1071.17 1353.55H1343.22V1346.98H1071.17V1353.55Z" fill="#6965AC"/>
<path d="M1071.17 1367.54H1343.22V1360.97H1071.17V1367.54Z" fill="#6965AC"/>
<path d="M1071.17 1381.53H1343.22V1374.97H1071.17V1381.53Z" fill="#6965AC"/>
<path d="M1071.17 1395.53H1343.22V1388.96H1071.17V1395.53Z" fill="#6965AC"/>
<path d="M1315.54 1384.13H1325.43V995.036H1315.54V1384.13Z" fill="#F6EC40"/>
<path d="M1191.64 1384.13H1201.53V995.036H1191.64V1384.13Z" fill="#F6EC40"/>
<path d="M1260.61 971.196H1267.43V927.136H1260.61V971.196Z" fill="#F6EC40"/>
<path d="M1253.79 990.366H1260.61V971.196H1253.79V990.366Z" fill="#F6EC40"/>
<path d="M1672.88 1402.79H1907.77V937.506H1672.88V1402.79Z" fill="#F84703"/>
<path d="M1785.98 1402.79H1907.77V937.506H1785.98V1402.79Z" fill="#F6EC40"/>
<path d="M1895.64 1379.63H1907.77V987.566H1895.64V1379.63Z" fill="#6965AC"/>
<path d="M1884.3 1379.63H1890.37V987.566H1884.3V1379.63Z" fill="#6965AC"/>
<path d="M1869.81 1379.63H1881.93V987.566H1869.81V1379.63Z" fill="#6965AC"/>
<path d="M1858.47 1379.63H1864.53V987.566H1858.47V1379.63Z" fill="#6965AC"/>
<path d="M1843.97 1379.63H1856.1V987.566H1843.97V1379.63Z" fill="#6965AC"/>
<path d="M1832.63 1379.63H1838.7V987.566H1832.63V1379.63Z" fill="#6965AC"/>
<path d="M1818.14 1379.63H1830.26V987.566H1818.14V1379.63Z" fill="#6965AC"/>
<path d="M1806.8 1379.63H1812.87V987.566H1806.8V1379.63Z" fill="#6965AC"/>
<path d="M1792.3 1379.63H1804.43V987.566H1792.3V1379.63Z" fill="#6965AC"/>
<path d="M1774.9 1379.63H1780.97V987.566H1774.9V1379.63Z" fill="#6965AC"/>
<path d="M1762.78 1379.63H1768.84V987.566H1762.78V1379.63Z" fill="#6965AC"/>
<path d="M1750.65 1379.63H1756.71V987.566H1750.65V1379.63Z" fill="#6965AC"/>
<path d="M1738.53 1379.63H1744.59V987.566H1738.53V1379.63Z" fill="#6965AC"/>
<path d="M1726.4 1379.63H1732.46V987.566H1726.4V1379.63Z" fill="#6965AC"/>
<path d="M1714.27 1379.63H1720.34V987.566H1714.27V1379.63Z" fill="#6965AC"/>
<path d="M1702.15 1379.63H1708.21V987.566H1702.15V1379.63Z" fill="#6965AC"/>
<path d="M1690.02 1379.63H1696.08V987.566H1690.02V1379.63Z" fill="#6965AC"/>
<path d="M1677.89 1379.63H1683.96V987.566H1677.89V1379.63Z" fill="#6965AC"/>
<path d="M792.658 1402.79H1027.54V1059.14H792.658V1402.79Z" fill="#F84703"/>
<path d="M905.753 1402.79H1027.54V1059.14H905.753V1402.79Z" fill="#F6EC40"/>
<path d="M1027.54 1165.91V1402.79H905.753V1219.13L1027.54 1165.91Z" fill="#F84703"/>
<path d="M1015.42 1385.68H1027.54V1096.11H1015.42V1385.68Z" fill="#6965AC"/>
<path d="M1004.08 1385.68H1010.14V1096.11H1004.08V1385.68Z" fill="#6965AC"/>
<path d="M989.58 1385.68H1001.71V1096.11H989.58V1385.68Z" fill="#6965AC"/>
<path d="M978.244 1385.68H984.308V1096.11H978.244V1385.68Z" fill="#6965AC"/>
<path d="M963.746 1385.68H975.874V1096.11H963.746V1385.68Z" fill="#6965AC"/>
<path d="M952.411 1385.68H958.472V1096.11H952.411V1385.68Z" fill="#6965AC"/>
<path d="M937.91 1385.68H950.038V1096.11H937.91V1385.68Z" fill="#6965AC"/>
<path d="M926.575 1385.68H932.639V1096.11H926.575V1385.68Z" fill="#6965AC"/>
<path d="M912.077 1385.68H924.205V1096.11H912.077V1385.68Z" fill="#6965AC"/>
<path d="M894.682 1385.68H900.741V1096.11H894.682V1385.68Z" fill="#6965AC"/>
<path d="M882.554 1385.68H888.618V1096.11H882.554V1385.68Z" fill="#6965AC"/>
<path d="M870.428 1385.68H876.49V1096.11H870.428V1385.68Z" fill="#6965AC"/>
<path d="M858.301 1385.68H864.365V1096.11H858.301V1385.68Z" fill="#6965AC"/>
<path d="M846.175 1385.68H852.236V1096.11H846.175V1385.68Z" fill="#6965AC"/>
<path d="M834.047 1385.68H840.111V1096.11H834.047V1385.68Z" fill="#6965AC"/>
<path d="M821.921 1385.68H827.985V1096.11H821.921V1385.68Z" fill="#6965AC"/>
<path d="M809.793 1385.68H815.857V1096.11H809.793V1385.68Z" fill="#6965AC"/>
<path d="M797.668 1385.68H803.732V1096.11H797.668V1385.68Z" fill="#6965AC"/>
<path d="M1567.29 1246.51H1631.81V1213.6H1567.29V1246.51Z" fill="#F84703"/>
<path d="M1611.45 1246.51H1631.81V1213.6H1611.45V1246.51Z" fill="#F6EC40"/>
<path d="M1489 1246.51H1553.52V1187.34H1489V1246.51Z" fill="#F84703"/>
<path d="M1533.16 1246.51H1553.52V1187.34H1533.16V1246.51Z" fill="#F6EC40"/>
<path d="M1588.48 1381.53H1648.06V1228.11H1588.48V1381.53Z" fill="#F6EC40"/>
<path d="M1648.06 1296.99V1381.53H1588.48V1321.27L1648.06 1296.99Z" fill="#F05555"/>
<path d="M1599.55 1246.51H1642V1233.55H1599.55V1246.51Z" fill="#6965AC"/>
<path d="M1599.55 1246.51H1642V1243.79H1599.55V1246.51Z" fill="#F05555"/>
<path d="M1599.55 1263.36H1642V1250.4H1599.55V1263.36Z" fill="#6965AC"/>
<path d="M1599.55 1263.36H1642V1260.64H1599.55V1263.36Z" fill="#F05555"/>
<path d="M1599.55 1280.2H1642V1267.24H1599.55V1280.2Z" fill="#6965AC"/>
<path d="M1599.55 1280.2H1642V1277.48H1599.55V1280.2Z" fill="#F05555"/>
<path d="M1599.55 1297.05H1642V1284.09H1599.55V1297.05Z" fill="#6965AC"/>
<path d="M1599.55 1297.05H1642V1294.33H1599.55V1297.05Z" fill="#F05555"/>
<path d="M1599.55 1313.9H1642V1300.94H1599.55V1313.9Z" fill="#6965AC"/>
<path d="M1599.55 1313.9H1642V1311.17H1599.55V1313.9Z" fill="#F6EC40"/>
<path d="M1599.55 1330.74H1642V1317.78H1599.55V1330.74Z" fill="#6965AC"/>
<path d="M1599.55 1330.74H1642V1328.02H1599.55V1330.74Z" fill="#F6EC40"/>
<path d="M1599.55 1347.58H1642V1334.63H1599.55V1347.58Z" fill="#6965AC"/>
<path d="M1599.55 1347.58H1642V1344.86H1599.55V1347.58Z" fill="#F6EC40"/>
<path d="M1599.55 1364.43H1642V1351.47H1599.55V1364.43Z" fill="#6965AC"/>
<path d="M1599.55 1364.43H1642V1361.71H1599.55V1364.43Z" fill="#F6EC40"/>
<path d="M1409.75 1381.53H1588.48V1228.11H1409.75V1381.53Z" fill="#F84703"/>
<path d="M1569.9 1240.03H1579.78V1233.55H1569.9V1240.03Z" fill="#6965AC"/>
<path d="M1569.9 1246.51H1579.78V1243.79H1569.9V1246.51Z" fill="#6965AC"/>
<path d="M1551.71 1240.03H1561.59V1233.55H1551.71V1240.03Z" fill="#6965AC"/>
<path d="M1551.71 1246.51H1561.59V1243.79H1551.71V1246.51Z" fill="#6965AC"/>
<path d="M1536.58 1240.03H1546.47V1233.55H1536.58V1240.03Z" fill="#6965AC"/>
<path d="M1536.58 1246.51H1546.47V1243.79H1536.58V1246.51Z" fill="#6965AC"/>
<path d="M1518.39 1240.03H1528.28V1233.55H1518.39V1240.03Z" fill="#6965AC"/>
<path d="M1518.39 1246.51H1528.28V1243.79H1518.39V1246.51Z" fill="#6965AC"/>
<path d="M1503.27 1240.03H1513.15V1233.55H1503.27V1240.03Z" fill="#6965AC"/>
<path d="M1503.27 1246.51H1513.15V1243.79H1503.27V1246.51Z" fill="#6965AC"/>
<path d="M1485.08 1240.03H1494.96V1233.55H1485.08V1240.03Z" fill="#6965AC"/>
<path d="M1485.08 1246.51H1494.96V1243.79H1485.08V1246.51Z" fill="#6965AC"/>
<path d="M1469.96 1240.03H1479.84V1233.55H1469.96V1240.03Z" fill="#6965AC"/>
<path d="M1469.96 1246.51H1479.84V1243.79H1469.96V1246.51Z" fill="#6965AC"/>
<path d="M1451.77 1240.03H1461.65V1233.55H1451.77V1240.03Z" fill="#6965AC"/>
<path d="M1451.77 1246.51H1461.65V1243.79H1451.77V1246.51Z" fill="#6965AC"/>
<path d="M1436.64 1240.03H1446.52V1233.55H1436.64V1240.03Z" fill="#6965AC"/>
<path d="M1436.64 1246.51H1446.52V1243.79H1436.64V1246.51Z" fill="#6965AC"/>
<path d="M1418.45 1240.03H1428.33V1233.55H1418.45V1240.03Z" fill="#6965AC"/>
<path d="M1418.45 1246.51H1428.33V1243.79H1418.45V1246.51Z" fill="#6965AC"/>
<path d="M1569.9 1258.35H1579.78V1251.87H1569.9V1258.35Z" fill="#6965AC"/>
<path d="M1569.9 1264.83H1579.78V1262.1H1569.9V1264.83Z" fill="#6965AC"/>
<path d="M1551.71 1258.35H1561.59V1251.87H1551.71V1258.35Z" fill="#6965AC"/>
<path d="M1551.71 1264.83H1561.59V1262.1H1551.71V1264.83Z" fill="#6965AC"/>
<path d="M1536.58 1258.35H1546.47V1251.87H1536.58V1258.35Z" fill="#6965AC"/>
<path d="M1536.58 1264.83H1546.47V1262.1H1536.58V1264.83Z" fill="#6965AC"/>
<path d="M1518.39 1258.35H1528.28V1251.87H1518.39V1258.35Z" fill="#6965AC"/>
<path d="M1518.39 1264.83H1528.28V1262.1H1518.39V1264.83Z" fill="#6965AC"/>
<path d="M1503.27 1258.35H1513.15V1251.87H1503.27V1258.35Z" fill="#6965AC"/>
<path d="M1503.27 1264.83H1513.15V1262.1H1503.27V1264.83Z" fill="#6965AC"/>
<path d="M1485.08 1258.35H1494.96V1251.87H1485.08V1258.35Z" fill="#6965AC"/>
<path d="M1485.08 1264.83H1494.96V1262.1H1485.08V1264.83Z" fill="#6965AC"/>
<path d="M1469.96 1258.35H1479.84V1251.87H1469.96V1258.35Z" fill="#6965AC"/>
<path d="M1469.96 1264.83H1479.84V1262.1H1469.96V1264.83Z" fill="#6965AC"/>
<path d="M1451.77 1258.35H1461.65V1251.87H1451.77V1258.35Z" fill="#6965AC"/>
<path d="M1451.77 1264.83H1461.65V1262.1H1451.77V1264.83Z" fill="#6965AC"/>
<path d="M1436.64 1258.35H1446.52V1251.87H1436.64V1258.35Z" fill="#6965AC"/>
<path d="M1436.64 1264.83H1446.52V1262.1H1436.64V1264.83Z" fill="#6965AC"/>
<path d="M1418.45 1258.35H1428.33V1251.87H1418.45V1258.35Z" fill="#6965AC"/>
<path d="M1418.45 1264.83H1428.33V1262.1H1418.45V1264.83Z" fill="#6965AC"/>
<path d="M1569.9 1276.66H1579.78V1270.18H1569.9V1276.66Z" fill="#6965AC"/>
<path d="M1569.9 1283.14H1579.78V1280.42H1569.9V1283.14Z" fill="#6965AC"/>
<path d="M1551.71 1276.66H1561.59V1270.18H1551.71V1276.66Z" fill="#6965AC"/>
<path d="M1551.71 1283.14H1561.59V1280.42H1551.71V1283.14Z" fill="#6965AC"/>
<path d="M1536.58 1276.66H1546.47V1270.18H1536.58V1276.66Z" fill="#6965AC"/>
<path d="M1536.58 1283.14H1546.47V1280.42H1536.58V1283.14Z" fill="#6965AC"/>
<path d="M1518.39 1276.66H1528.28V1270.18H1518.39V1276.66Z" fill="#6965AC"/>
<path d="M1518.39 1283.14H1528.28V1280.42H1518.39V1283.14Z" fill="#6965AC"/>
<path d="M1503.27 1276.66H1513.15V1270.18H1503.27V1276.66Z" fill="#6965AC"/>
<path d="M1503.27 1283.14H1513.15V1280.42H1503.27V1283.14Z" fill="#6965AC"/>
<path d="M1485.08 1276.66H1494.96V1270.18H1485.08V1276.66Z" fill="#6965AC"/>
<path d="M1485.08 1283.14H1494.96V1280.42H1485.08V1283.14Z" fill="#6965AC"/>
<path d="M1469.96 1276.66H1479.84V1270.18H1469.96V1276.66Z" fill="#6965AC"/>
<path d="M1469.96 1283.14H1479.84V1280.42H1469.96V1283.14Z" fill="#6965AC"/>
<path d="M1451.77 1276.66H1461.65V1270.18H1451.77V1276.66Z" fill="#6965AC"/>
<path d="M1451.77 1283.14H1461.65V1280.42H1451.77V1283.14Z" fill="#6965AC"/>
<path d="M1436.64 1276.66H1446.52V1270.18H1436.64V1276.66Z" fill="#6965AC"/>
<path d="M1436.64 1283.14H1446.52V1280.42H1436.64V1283.14Z" fill="#6965AC"/>
<path d="M1418.45 1276.66H1428.33V1270.18H1418.45V1276.66Z" fill="#6965AC"/>
<path d="M1418.45 1283.14H1428.33V1280.42H1418.45V1283.14Z" fill="#6965AC"/>
<path d="M1569.9 1294.98H1579.78V1288.5H1569.9V1294.98Z" fill="#6965AC"/>
<path d="M1569.9 1301.46H1579.78V1298.73H1569.9V1301.46Z" fill="#6965AC"/>
<path d="M1551.71 1294.98H1561.59V1288.5H1551.71V1294.98Z" fill="#6965AC"/>
<path d="M1551.71 1301.46H1561.59V1298.73H1551.71V1301.46Z" fill="#6965AC"/>
<path d="M1536.58 1294.98H1546.47V1288.5H1536.58V1294.98Z" fill="#6965AC"/>
<path d="M1536.58 1301.46H1546.47V1298.73H1536.58V1301.46Z" fill="#6965AC"/>
<path d="M1518.39 1294.98H1528.28V1288.5H1518.39V1294.98Z" fill="#6965AC"/>
<path d="M1518.39 1301.46H1528.28V1298.73H1518.39V1301.46Z" fill="#6965AC"/>
<path d="M1503.27 1294.98H1513.15V1288.5H1503.27V1294.98Z" fill="#6965AC"/>
<path d="M1503.27 1301.46H1513.15V1298.73H1503.27V1301.46Z" fill="#6965AC"/>
<path d="M1485.08 1294.98H1494.96V1288.5H1485.08V1294.98Z" fill="#6965AC"/>
<path d="M1485.08 1301.46H1494.96V1298.73H1485.08V1301.46Z" fill="#6965AC"/>
<path d="M1469.96 1294.98H1479.84V1288.5H1469.96V1294.98Z" fill="#6965AC"/>
<path d="M1469.96 1301.46H1479.84V1298.73H1469.96V1301.46Z" fill="#6965AC"/>
<path d="M1451.77 1294.98H1461.65V1288.5H1451.77V1294.98Z" fill="#6965AC"/>
<path d="M1451.77 1301.46H1461.65V1298.73H1451.77V1301.46Z" fill="#6965AC"/>
<path d="M1436.64 1294.98H1446.52V1288.5H1436.64V1294.98Z" fill="#6965AC"/>
<path d="M1436.64 1301.46H1446.52V1298.73H1436.64V1301.46Z" fill="#6965AC"/>
<path d="M1418.45 1294.98H1428.33V1288.5H1418.45V1294.98Z" fill="#6965AC"/>
<path d="M1418.45 1301.46H1428.33V1298.73H1418.45V1301.46Z" fill="#6965AC"/>
<path d="M1569.9 1313.29H1579.78V1306.81H1569.9V1313.29Z" fill="#6965AC"/>
<path d="M1569.9 1319.77H1579.78V1317.05H1569.9V1319.77Z" fill="#6965AC"/>
<path d="M1551.71 1313.29H1561.59V1306.81H1551.71V1313.29Z" fill="#6965AC"/>
<path d="M1551.71 1319.77H1561.59V1317.05H1551.71V1319.77Z" fill="#6965AC"/>
<path d="M1536.58 1313.29H1546.47V1306.81H1536.58V1313.29Z" fill="#6965AC"/>
<path d="M1536.58 1319.77H1546.47V1317.05H1536.58V1319.77Z" fill="#6965AC"/>
<path d="M1518.39 1313.29H1528.28V1306.81H1518.39V1313.29Z" fill="#6965AC"/>
<path d="M1518.39 1319.77H1528.28V1317.05H1518.39V1319.77Z" fill="#6965AC"/>
<path d="M1503.27 1313.29H1513.15V1306.81H1503.27V1313.29Z" fill="#6965AC"/>
<path d="M1503.27 1319.77H1513.15V1317.05H1503.27V1319.77Z" fill="#6965AC"/>
<path d="M1485.08 1313.29H1494.96V1306.81H1485.08V1313.29Z" fill="#6965AC"/>
<path d="M1485.08 1319.77H1494.96V1317.05H1485.08V1319.77Z" fill="#6965AC"/>
<path d="M1469.96 1313.29H1479.84V1306.81H1469.96V1313.29Z" fill="#6965AC"/>
<path d="M1469.96 1319.77H1479.84V1317.05H1469.96V1319.77Z" fill="#6965AC"/>
<path d="M1451.77 1313.29H1461.65V1306.81H1451.77V1313.29Z" fill="#6965AC"/>
<path d="M1451.77 1319.77H1461.65V1317.05H1451.77V1319.77Z" fill="#6965AC"/>
<path d="M1436.64 1313.29H1446.52V1306.81H1436.64V1313.29Z" fill="#6965AC"/>
<path d="M1436.64 1319.77H1446.52V1317.05H1436.64V1319.77Z" fill="#6965AC"/>
<path d="M1418.45 1313.29H1428.33V1306.81H1418.45V1313.29Z" fill="#6965AC"/>
<path d="M1418.45 1319.77H1428.33V1317.05H1418.45V1319.77Z" fill="#6965AC"/>
<path d="M1569.9 1331.6H1579.78V1325.13H1569.9V1331.6Z" fill="#6965AC"/>
<path d="M1569.9 1338.08H1579.78V1335.36H1569.9V1338.08Z" fill="#6965AC"/>
<path d="M1551.71 1331.6H1561.59V1325.13H1551.71V1331.6Z" fill="#6965AC"/>
<path d="M1551.71 1338.08H1561.59V1335.36H1551.71V1338.08Z" fill="#6965AC"/>
<path d="M1536.58 1331.6H1546.47V1325.13H1536.58V1331.6Z" fill="#6965AC"/>
<path d="M1536.58 1338.08H1546.47V1335.36H1536.58V1338.08Z" fill="#6965AC"/>
<path d="M1518.39 1331.6H1528.28V1325.13H1518.39V1331.6Z" fill="#6965AC"/>
<path d="M1518.39 1338.08H1528.28V1335.36H1518.39V1338.08Z" fill="#6965AC"/>
<path d="M1503.27 1331.6H1513.15V1325.13H1503.27V1331.6Z" fill="#6965AC"/>
<path d="M1503.27 1338.08H1513.15V1335.36H1503.27V1338.08Z" fill="#6965AC"/>
<path d="M1485.08 1331.6H1494.96V1325.13H1485.08V1331.6Z" fill="#6965AC"/>
<path d="M1485.08 1338.08H1494.96V1335.36H1485.08V1338.08Z" fill="#6965AC"/>
<path d="M1469.96 1331.6H1479.84V1325.13H1469.96V1331.6Z" fill="#6965AC"/>
<path d="M1469.96 1338.08H1479.84V1335.36H1469.96V1338.08Z" fill="#6965AC"/>
<path d="M1451.77 1331.6H1461.65V1325.13H1451.77V1331.6Z" fill="#6965AC"/>
<path d="M1451.77 1338.08H1461.65V1335.36H1451.77V1338.08Z" fill="#6965AC"/>
<path d="M1436.64 1331.6H1446.52V1325.13H1436.64V1331.6Z" fill="#6965AC"/>
<path d="M1436.64 1338.08H1446.52V1335.36H1436.64V1338.08Z" fill="#6965AC"/>
<path d="M1418.45 1331.6H1428.33V1325.13H1418.45V1331.6Z" fill="#6965AC"/>
<path d="M1418.45 1338.08H1428.33V1335.36H1418.45V1338.08Z" fill="#6965AC"/>
<path d="M1569.9 1349.92H1579.78V1343.44H1569.9V1349.92Z" fill="#6965AC"/>
<path d="M1569.9 1356.4H1579.78V1353.67H1569.9V1356.4Z" fill="#6965AC"/>
<path d="M1551.71 1349.92H1561.59V1343.44H1551.71V1349.92Z" fill="#6965AC"/>
<path d="M1551.71 1356.4H1561.59V1353.67H1551.71V1356.4Z" fill="#6965AC"/>
<path d="M1536.58 1349.92H1546.47V1343.44H1536.58V1349.92Z" fill="#6965AC"/>
<path d="M1536.58 1356.4H1546.47V1353.67H1536.58V1356.4Z" fill="#6965AC"/>
<path d="M1518.39 1349.92H1528.28V1343.44H1518.39V1349.92Z" fill="#6965AC"/>
<path d="M1518.39 1356.4H1528.28V1353.67H1518.39V1356.4Z" fill="#6965AC"/>
<path d="M1503.27 1349.92H1513.15V1343.44H1503.27V1349.92Z" fill="#6965AC"/>
<path d="M1503.27 1356.4H1513.15V1353.67H1503.27V1356.4Z" fill="#6965AC"/>
<path d="M1485.08 1349.92H1494.96V1343.44H1485.08V1349.92Z" fill="#6965AC"/>
<path d="M1485.08 1356.4H1494.96V1353.67H1485.08V1356.4Z" fill="#6965AC"/>
<path d="M1469.96 1349.92H1479.84V1343.44H1469.96V1349.92Z" fill="#6965AC"/>
<path d="M1469.96 1356.4H1479.84V1353.67H1469.96V1356.4Z" fill="#6965AC"/>
<path d="M1451.77 1349.92H1461.65V1343.44H1451.77V1349.92Z" fill="#6965AC"/>
<path d="M1451.77 1356.4H1461.65V1353.67H1451.77V1356.4Z" fill="#6965AC"/>
<path d="M1436.64 1349.92H1446.52V1343.44H1436.64V1349.92Z" fill="#6965AC"/>
<path d="M1436.64 1356.4H1446.52V1353.67H1436.64V1356.4Z" fill="#6965AC"/>
<path d="M1418.45 1349.92H1428.33V1343.44H1418.45V1349.92Z" fill="#6965AC"/>
<path d="M1418.45 1356.4H1428.33V1353.67H1418.45V1356.4Z" fill="#6965AC"/>
<path d="M1569.9 1368.23H1579.78V1361.75H1569.9V1368.23Z" fill="#6965AC"/>
<path d="M1569.9 1374.71H1579.78V1371.99H1569.9V1374.71Z" fill="#6965AC"/>
<path d="M1551.71 1368.23H1561.59V1361.75H1551.71V1368.23Z" fill="#6965AC"/>
<path d="M1551.71 1374.71H1561.59V1371.99H1551.71V1374.71Z" fill="#6965AC"/>
<path d="M1536.58 1368.23H1546.47V1361.75H1536.58V1368.23Z" fill="#6965AC"/>
<path d="M1536.58 1374.71H1546.47V1371.99H1536.58V1374.71Z" fill="#6965AC"/>
<path d="M1518.39 1368.23H1528.28V1361.75H1518.39V1368.23Z" fill="#6965AC"/>
<path d="M1518.39 1374.71H1528.28V1371.99H1518.39V1374.71Z" fill="#6965AC"/>
<path d="M1503.27 1368.23H1513.15V1361.75H1503.27V1368.23Z" fill="#6965AC"/>
<path d="M1503.27 1374.71H1513.15V1371.99H1503.27V1374.71Z" fill="#6965AC"/>
<path d="M1485.08 1368.23H1494.96V1361.75H1485.08V1368.23Z" fill="#6965AC"/>
<path d="M1485.08 1374.71H1494.96V1371.99H1485.08V1374.71Z" fill="#6965AC"/>
<path d="M1469.96 1368.23H1479.84V1361.75H1469.96V1368.23Z" fill="#6965AC"/>
<path d="M1469.96 1374.71H1479.84V1371.99H1469.96V1374.71Z" fill="#6965AC"/>
<path d="M1451.77 1368.23H1461.65V1361.75H1451.77V1368.23Z" fill="#6965AC"/>
<path d="M1451.77 1374.71H1461.65V1371.99H1451.77V1374.71Z" fill="#6965AC"/>
<path d="M1436.64 1368.23H1446.52V1361.75H1436.64V1368.23Z" fill="#6965AC"/>
<path d="M1436.64 1374.71H1446.52V1371.99H1436.64V1374.71Z" fill="#6965AC"/>
<path d="M1418.45 1368.23H1428.33V1361.75H1418.45V1368.23Z" fill="#6965AC"/>
<path d="M1418.45 1374.71H1428.33V1371.99H1418.45V1374.71Z" fill="#6965AC"/>
<path d="M1893.91 1366.33H1713.6V1270.61H1707.8V1260.25H1701.47V1243.66H1689.61L1684.87 1205.82L1680.91 1243.14H1671.42V1261.28H1661.93V1271.65H1655.6V1366.33H1426.26V1374.8H1238.04L1219.85 1388.79V1431.29H1195.33V1404.86L1157.37 1393.98H1093.31L1084.62 1399.67H814.935V1378.94H723.989V1394.49H648.066V1385.16H524.696L467.753 1398.12H421.093V1389.31H373.645V1398.12H350.706L281.115 1379.46L202.82 1396.05H97.6388V1352.51H-0.000488281V1443.55L1920.9 1436.67V1390.27L1893.91 1366.33Z" fill="#6965AC"/>
<path d="M1830.78 1416V1375.84H1752.49L1713.6 1366.33H1893.91L1920.9 1390.27V1436.66L1919.01 1436.67L1893.26 1416H1830.78Z" fill="#F6EC40"/>
<path d="M1655.6 1271.65H1661.93V1261.28H1671.42V1243.14H1680.91L1684.87 1205.82L1689.61 1243.66H1701.47V1260.25H1707.8V1270.61H1713.6V1338.21L1655.6 1366.33V1271.65Z" fill="#F6EC40"/>
<path d="M1668.79 1269.58H1703.06V1264.74H1668.79V1269.58Z" fill="#6965AC"/>
<path d="M1676.7 1261.28H1694.62V1255.41H1676.7V1261.28Z" fill="#6965AC"/>
<path d="M1668.79 1296.88H1703.06V1279.25H1668.79V1296.88Z" fill="#6965AC"/>
<path d="M-0.000488281 1458.25H1920.9V1431.29H-0.000488281V1458.25Z" fill="#F9A550"/>
<path d="M-0.000488281 1600.58H1920.9V1396.06H-0.000488281V1600.58Z" fill="#808080"/>
<path d="M-0.000488281 1466.54H1920.9V1431.29H-0.000488281V1466.54Z" fill="#2BB78D"/>
<path d="M-0.000488281 1466.54H1920.9V1459.14H-0.000488281V1466.54Z" fill="#2D898C"/>
<path d="M-0.000488281 1431.55H1920.9V1419.72H-0.000488281V1431.55Z" fill="white"/>
<path d="M275.915 1509.37H11.3101L28.9862 1490.55H293.591L275.915 1509.37Z" fill="white"/>
<path d="M676.374 1509.37H411.771L429.445 1490.55H694.051L676.374 1509.37Z" fill="white"/>
<path d="M1076.84 1509.37H812.23L829.909 1490.55H1094.51L1076.84 1509.37Z" fill="white"/>
<path d="M1477.3 1509.37H1212.69L1230.37 1490.55H1494.98L1477.3 1509.37Z" fill="white"/>
<path d="M1877.76 1509.37H1613.15L1630.83 1490.55H1895.44L1877.76 1509.37Z" fill="white"/>
</g>
</g>
<defs>
<clipPath id="clip0_62_3949">
<rect width="1920" height="1571" fill="white" transform="translate(0 -0.104492)"/>
</clipPath>
</defs>
</svg>
